<svg width="466" height="194" viewBox="0 0 466 194" fill="none" xmlns="http://www.w3.org/2000/svg">
<path d="M16.331 127.931L27.529 154.886C28.4774 157.082 29.9832 158.205 32.0464 158.263V159.212H19.1929V158.263C21.6305 158.288 22.3876 157.165 21.4724 154.886L19.0182 148.821H7.94505L5.62393 154.886C4.71712 157.14 5.4825 158.263 7.92841 158.263V159.212H0V158.263C2.18801 158.305 3.73542 157.182 4.61728 154.886L14.8668 127.931H16.331V127.931ZM8.3111 147.914H18.6438C18.2611 146.999 16.4891 142.614 13.336 134.761C10.2163 142.947 8.54405 147.332 8.3111 147.914Z" fill="white"/>
<path d="M53.6853 128.851C55.6071 129.508 56.6221 129.201 56.7385 127.928H57.5788L58.078 137.038L57.2793 137.121C55.8733 131.472 52.3875 128.643 46.8134 128.635C43.6937 128.66 41.1396 130.182 39.1596 133.194C37.2212 136.147 36.2478 139.7 36.2311 143.851C36.2311 146.622 36.5806 149.117 37.2628 151.355C37.895 153.452 38.9932 155.166 40.5739 156.513C42.088 157.844 43.9682 158.51 46.2061 158.51C48.2943 158.552 49.9416 158.027 51.1479 156.921C52.3625 155.848 52.9781 154.392 52.9781 152.553V151.438C52.9781 148.793 51.5555 147.129 48.7269 146.472V145.523H62.8283V146.472C60.0164 147.087 58.6187 148.743 58.6187 151.438V155.116C57.0963 156.43 55.3825 157.478 53.4773 158.252C51.3309 159.142 48.9266 159.616 46.281 159.691C41.5389 159.775 37.6371 158.31 34.5922 155.282C31.4641 152.212 29.9084 148.402 29.9084 143.843C29.9084 140.948 30.6155 138.227 32.0382 135.673C33.4192 133.177 35.3992 131.189 37.9949 129.7C40.5988 128.194 43.6022 127.445 46.9965 127.445C48.7436 127.47 50.9732 127.928 53.6853 128.851Z" fill="white"/>
<path d="M81.0645 127.928C83.6019 127.928 85.765 128.793 87.5536 130.54C89.3423 132.279 90.2408 134.392 90.2408 136.871C90.2408 139.317 89.3423 141.414 87.5536 143.161C85.765 144.899 83.6019 145.773 81.0645 145.773H73.4772V154.417C73.4605 157.037 74.7584 158.352 77.3707 158.352V159.217H64.1095V158.352C66.7218 158.352 68.0113 157.037 68.003 154.417V132.728C68.003 130.033 66.7052 128.726 64.1095 128.793V127.936H81.0645V127.928ZM73.4772 144.8H77.0878C79.1261 144.8 80.8731 144.034 82.3374 142.487C83.8016 140.948 84.5337 139.059 84.5337 136.821C84.5337 134.617 83.8016 132.736 82.3374 131.189C80.9064 129.683 79.1593 128.934 77.0878 128.934H73.4772V144.8Z" fill="white"/>
<path d="M115.523 127.928L115.998 135.39L115.157 135.515C114.858 131.089 112.37 128.876 107.695 128.876H99.8497V141.896H103.826C106.88 141.896 108.402 140.332 108.402 137.212H109.242V147.637H108.402C108.402 144.459 106.88 142.861 103.826 142.861H99.8497V153.111C99.8497 156.605 102.204 158.352 106.905 158.352C113.485 158.352 116.921 155.632 117.221 150.207L117.994 150.274L117.462 159.192H90.4654V158.327C93.0777 158.269 94.3755 156.971 94.3755 154.434V132.703C94.3922 130.041 93.086 128.727 90.4654 128.768V127.911H115.523V127.928Z" fill="white"/>
<path d="M150.798 128.851C152.72 129.509 153.71 129.201 153.785 127.903H154.65L155.207 137.038L154.342 137.121C152.936 131.464 149.467 128.635 143.943 128.635C140.848 128.652 138.285 130.182 136.272 133.236C134.342 136.156 133.369 139.708 133.369 143.876C133.369 153.635 137.079 158.51 144.5 158.51C149.575 158.51 153.161 156.464 155.274 152.362L156.089 152.595C154.051 157.312 150.099 159.666 144.226 159.666C140.715 159.666 137.686 158.976 135.132 157.578C132.67 156.231 130.706 154.317 129.242 151.838C127.811 149.4 127.096 146.746 127.096 143.86C127.096 140.865 127.778 138.127 129.142 135.648C130.498 133.194 132.503 131.222 135.141 129.717C137.778 128.211 140.765 127.462 144.101 127.462C145.864 127.47 148.102 127.928 150.798 128.851Z" fill="white"/>
<path d="M185.898 131.771C188.701 134.667 190.107 138.51 190.107 143.31C190.107 146.405 189.367 149.209 187.894 151.713C186.405 154.25 184.392 156.222 181.854 157.628C179.292 159.059 176.513 159.775 173.535 159.775C168.959 159.775 165.132 158.244 162.037 155.174C158.926 152.121 157.37 148.377 157.37 143.934C157.37 140.873 158.044 138.111 159.392 135.657C160.781 133.161 162.77 131.164 165.349 129.658C167.928 128.152 170.848 127.395 174.117 127.379C179.126 127.387 183.052 128.851 185.898 131.771ZM168.527 130.698C166.938 132.088 165.715 133.934 164.849 136.247C163.992 138.535 163.56 141.089 163.56 143.901C163.56 148.011 164.542 151.505 166.505 154.367C168.435 157.204 170.798 158.626 173.576 158.626C175.398 158.626 177.112 157.969 178.735 156.646C180.307 155.34 181.58 153.51 182.536 151.147C183.485 148.826 183.951 146.231 183.951 143.369C183.951 138.901 183.069 135.332 181.305 132.662C179.517 129.949 177.071 128.602 173.976 128.602C171.954 128.593 170.132 129.292 168.527 130.698Z" fill="white"/>
<path d="M202.337 127.928C202.337 128.419 202.694 129.101 203.41 129.991C206.272 134.251 211.022 140.781 217.661 149.592V132.72C217.661 130.099 216.347 128.785 213.726 128.785V127.928H222.52V128.826C219.941 128.801 218.651 130.099 218.651 132.72V159.201H216.995L196.272 131.339V154.4C196.255 157.062 197.553 158.394 200.165 158.394V159.192H191.397V158.352C193.951 158.352 195.232 157.029 195.249 154.4V132.711C195.232 130.091 193.951 128.776 191.397 128.776V127.919H202.337V127.928Z" fill="white"/>
<path d="M254.375 127.928L254.849 135.432L254.009 135.474C253.709 131.064 251.396 128.851 247.07 128.851H242.062V154.45C242.062 157.046 243.376 158.344 245.997 158.344V159.209H232.669V158.344C235.29 158.344 236.604 157.046 236.604 154.45V128.851H231.596C227.27 128.851 224.957 131.056 224.649 135.474L223.809 135.39L224.283 127.928H254.375V127.928Z" fill="white"/>
<path d="M267.095 127.928L278.293 154.883C279.241 157.079 280.747 158.202 282.802 158.26V159.209H269.949V158.26C272.386 158.285 273.143 157.162 272.228 154.883L269.782 148.818H258.709L256.388 154.883C255.481 157.137 256.255 158.26 258.693 158.26V159.209H250.756V158.26C252.952 158.302 254.491 157.179 255.373 154.883L265.631 127.928H267.095V127.928ZM259.084 147.911H269.425C269.034 146.996 267.27 142.612 264.117 134.758C260.989 142.944 259.308 147.329 259.084 147.911Z" fill="white"/>
<path d="M300.373 127.928C302.669 127.928 304.641 128.635 306.288 130.058C307.894 131.472 308.692 133.202 308.692 135.232C308.692 137.179 307.935 138.868 306.413 140.282C304.89 141.672 303.018 142.437 300.781 142.578H302.436C304.716 142.595 306.704 143.419 308.393 145.049C310.057 146.672 310.889 148.627 310.889 150.914C310.889 153.202 310.057 155.149 308.393 156.738C306.704 158.369 304.716 159.192 302.436 159.192H283.027V158.327C285.647 158.36 286.962 157.063 286.962 154.434V132.703C286.962 130.141 285.647 128.826 283.027 128.768V127.911H300.373V127.928ZM292.419 142.279H296.845C298.751 142.279 300.256 141.638 301.363 140.365C302.469 139.093 303.018 137.495 303.018 135.573C303.018 133.668 302.469 132.079 301.363 130.798C300.256 129.525 298.759 128.885 296.845 128.885H292.419V142.279ZM292.419 154.924C292.419 155.84 292.769 156.638 293.459 157.32C294.15 158.003 295.281 158.344 296.845 158.344C299.025 158.344 300.955 157.67 302.652 156.314C304.341 154.958 305.19 153.111 305.19 150.756C305.19 148.577 304.632 146.771 303.526 145.34C302.419 143.91 300.922 143.194 299.042 143.194H292.419V154.924V154.924Z" fill="white"/>
<path d="M324.383 127.928V128.785C321.787 128.785 320.489 130.107 320.489 132.736V154.4C320.489 157.021 321.787 158.335 324.383 158.335V159.201H311.097V158.335C313.692 158.335 314.99 157.021 314.99 154.4V132.736C314.99 130.116 313.692 128.793 311.097 128.785V127.928H324.383Z" fill="white"/>
<path d="M338.95 127.928V128.785C336.354 128.785 335.056 130.099 335.056 132.72V153.119C335.056 156.597 337.403 158.344 342.086 158.344C343.833 158.344 345.381 158.111 346.729 157.653C348.076 157.196 349.283 156.339 350.364 155.082C351.437 153.826 352.12 152.204 352.402 150.216L353.218 150.257L352.677 159.201H325.656L325.68 158.402C328.259 158.402 329.549 157.087 329.549 154.45V132.72C329.549 130.099 328.251 128.785 325.656 128.785V127.928H338.95Z" fill="white"/>
<path d="M367.802 127.928V128.785C365.206 128.785 363.908 130.107 363.908 132.736V154.4C363.908 157.021 365.206 158.335 367.802 158.335V159.201H354.516V158.335C357.111 158.335 358.409 157.021 358.409 154.4V132.736C358.409 130.116 357.111 128.793 354.516 128.785V127.928H367.802Z" fill="white"/>
<path d="M385.555 127.928C387.851 127.928 390.015 128.335 392.045 129.151C394.124 130.008 395.896 131.139 397.352 132.545C398.816 133.976 399.965 135.615 400.813 137.47C401.728 139.434 402.203 141.464 402.227 143.552C402.344 147.836 400.946 151.522 398.034 154.6C395.139 157.67 391.587 159.201 387.377 159.201H369.083V158.335C371.704 158.294 373.018 156.996 373.018 154.442V132.711C373.018 130.132 371.704 128.818 369.083 128.776V127.919H385.555V127.928ZM378.484 153.111C378.484 156.505 380.497 158.202 384.524 158.202C386.154 158.202 387.635 157.969 388.95 157.512C390.281 157.054 391.579 156.147 392.843 154.8C394.074 153.485 394.998 151.888 395.614 150.008C396.271 148.044 396.57 145.889 396.512 143.535C396.379 139.45 395.048 135.989 392.494 133.152C391.262 131.78 389.715 130.715 387.851 129.974C385.988 129.226 384.133 128.86 382.286 128.86H378.484V153.111V153.111Z" fill="white"/>
<path d="M416.163 127.928L427.361 154.883C428.309 157.079 429.815 158.202 431.878 158.26V159.209H419.025V158.26C421.462 158.285 422.219 157.162 421.304 154.883L418.85 148.818H407.777L405.456 154.883C404.557 157.137 405.322 158.26 407.752 158.26V159.209H399.815V158.26C402.011 158.302 403.55 157.179 404.441 154.883L414.69 127.928H416.163V127.928ZM408.143 147.911H418.484C418.093 146.996 416.329 142.612 413.176 134.758C410.048 142.944 408.367 147.329 408.143 147.911Z" fill="white"/>
<path d="M448.55 127.928C450.846 127.928 453.001 128.335 455.039 129.151C457.119 130.008 458.883 131.139 460.347 132.545C461.811 133.976 462.959 135.615 463.808 137.47C464.723 139.434 465.197 141.464 465.231 143.552C465.347 147.836 463.949 151.522 461.038 154.6C458.142 157.67 454.59 159.201 450.372 159.201H432.078V158.335C434.698 158.294 436.013 156.996 436.013 154.442V132.711C436.013 130.132 434.698 128.818 432.078 128.776V127.919H448.55V127.928ZM441.479 153.111C441.479 156.505 443.492 158.202 447.518 158.202C449.149 158.202 450.63 157.969 451.944 157.512C453.276 157.054 454.573 156.147 455.838 154.8C457.069 153.485 457.993 151.888 458.617 150.008C459.274 148.044 459.573 145.889 459.515 143.535C459.382 139.45 458.043 135.989 455.497 133.152C454.266 131.78 452.718 130.715 450.855 129.974C448.991 129.226 447.136 128.86 445.289 128.86H441.487V153.111H441.479Z" fill="white"/>
<path d="M231.039 97.5702L218.976 68.5271C212.029 67.6119 204.824 66.4638 197.362 65.0578C199.283 69.8082 200.506 72.8032 201.014 74.0096H166.047C166.463 72.9363 168.302 68.136 171.563 59.6169C170.448 59.3757 169.342 59.1427 168.244 58.9098L153.543 97.5618C150.54 105.324 145.332 109.126 137.911 108.976V112.179H164.741V108.976C156.505 108.976 153.909 105.174 156.963 97.5618L164.816 77.0628H202.262L210.548 97.5618C213.651 105.266 211.08 109.076 202.844 108.976V112.179H246.321V108.976C239.325 108.793 234.233 104.991 231.039 97.5702Z" fill="white"/>
<path d="M183.052 24.6338C186.813 33.9932 189.974 41.8634 192.57 48.3109C200.665 48.9765 207.894 49.642 213.377 50.1662L193.16 1.51416H188.21L171.022 46.6886C172.196 46.7635 173.36 46.8467 174.533 46.9299C176.896 40.7652 179.733 33.336 183.052 24.6338Z" fill="white"/>
<path d="M288.143 109.858C266.014 109.858 253.643 97.0211 251.014 71.3807C244.366 71.0895 237.386 70.5903 230.082 69.8416C231.163 75.9979 233.285 81.8382 236.521 87.329C241.463 95.715 248.102 102.187 256.438 106.738C265.065 111.439 275.323 113.793 287.195 113.793C307.07 113.793 320.448 105.823 327.328 89.8747L324.566 89.0761C317.436 102.928 305.298 109.858 288.143 109.858Z" fill="white"/>
<path d="M260.298 19.4758C267.128 9.15137 275.781 3.96837 286.255 3.91845C304.965 3.91845 316.687 13.4941 321.438 32.6371L324.349 32.3459L322.461 1.44758H319.549C319.308 5.80696 315.938 6.88017 309.441 4.65056C300.331 1.54742 292.769 0 286.762 0C275.473 0 265.365 2.54575 256.446 7.62892C247.528 12.7204 240.772 19.4092 236.163 27.6954C232.112 35.0747 229.849 43.1279 229.358 51.8633C234.05 52.3874 241.496 53.1861 250.506 54.0014C250.722 40.5239 253.984 29.0098 260.298 19.4758Z" fill="white"/>
<path d="M171.555 57.1794L197.353 62.6203C204.816 64.0263 212.021 65.1661 218.967 66.0895C222.753 66.5887 226.455 67.0213 230.082 67.3957C237.378 68.1444 244.366 68.6436 251.014 68.9348C310.156 71.5055 343.101 57.6287 343.101 57.6287C319.749 61.6137 277.885 58.9182 250.498 56.439L229.35 54.3009C225.881 53.9099 223.909 53.6686 223.909 53.6686C223.909 53.6686 219.882 53.2443 213.368 52.6204L192.561 50.7651C186.871 50.2909 180.756 49.8167 174.533 49.3841C173.369 49.3009 172.195 49.226 171.022 49.1429C152.337 47.9116 133.236 47.1379 122.121 48.078C134.317 49.7751 149.483 52.5289 168.235 56.4806L171.555 57.1794Z" fill="white"/>
<path d="M53.5688 187.462C53.3525 189.3 52.6787 190.723 51.5306 191.721C50.3908 192.719 48.8684 193.219 46.9715 193.219C44.9166 193.219 43.2694 192.478 42.0298 191.006C40.7902 189.533 40.1746 187.561 40.1746 185.091V183.418C40.1746 181.804 40.4657 180.382 41.0398 179.15C41.6138 177.928 42.4374 176.979 43.494 176.322C44.5506 175.665 45.7819 175.34 47.1712 175.34C49.0181 175.34 50.499 175.856 51.6138 176.888C52.7286 177.919 53.3775 179.35 53.5605 181.172H51.256C51.0564 179.783 50.6238 178.776 49.9582 178.152C49.2926 177.528 48.3609 177.22 47.1712 177.22C45.707 177.22 44.5589 177.761 43.727 178.843C42.895 179.924 42.479 181.472 42.479 183.468V185.157C42.479 187.046 42.8701 188.551 43.6604 189.666C44.4507 190.781 45.5489 191.338 46.9715 191.338C48.2444 191.338 49.2261 191.047 49.9083 190.473C50.5905 189.899 51.0397 188.893 51.2644 187.453H53.5688V187.462Z" fill="white"/>
<path d="M70.0828 184.841C70.0828 186.546 69.8 188.036 69.2259 189.3C68.6519 190.573 67.8366 191.538 66.7884 192.212C65.7401 192.878 64.5088 193.219 63.1112 193.219C61.7385 193.219 60.5238 192.886 59.4673 192.212C58.4107 191.538 57.5871 190.581 56.9964 189.333C56.414 188.086 56.1062 186.646 56.0979 184.999V183.743C56.0979 182.071 56.3891 180.59 56.9714 179.309C57.5538 178.027 58.3774 177.046 59.4423 176.363C60.5072 175.681 61.7218 175.34 63.0945 175.34C64.4922 175.34 65.7151 175.673 66.78 176.347C67.8449 177.021 68.6602 177.994 69.2343 179.275C69.8083 180.556 70.0912 182.037 70.0912 183.734V184.841H70.0828ZM67.795 183.718C67.795 181.655 67.379 180.074 66.5554 178.967C65.7235 177.861 64.5671 177.312 63.0779 177.312C61.6303 177.312 60.4905 177.861 59.6586 178.967C58.8267 180.074 58.3941 181.605 58.3774 183.56V184.841C58.3774 186.838 58.7934 188.41 59.6337 189.558C60.4739 190.698 61.6303 191.272 63.1028 191.272C64.5837 191.272 65.7318 190.731 66.5471 189.65C67.3624 188.568 67.7784 187.021 67.8033 185.007V183.718H67.795Z" fill="white"/>
<path d="M86.888 192.977H84.5835L75.8232 179.575V192.977H73.5187V175.581H75.8232L84.6001 189.042V175.581H86.8797V192.977H86.888Z" fill="white"/>
<path d="M96.0894 185.224C94.126 184.658 92.6867 183.967 91.7966 183.135C90.8981 182.312 90.4488 181.297 90.4488 180.082C90.4488 178.709 90.9979 177.578 92.0877 176.68C93.1859 175.781 94.6085 175.332 96.3556 175.332C97.5536 175.332 98.6185 175.565 99.5503 176.022C100.49 176.488 101.214 177.12 101.722 177.936C102.237 178.751 102.495 179.633 102.495 180.598H100.191C100.191 179.541 99.8581 178.718 99.1842 178.11C98.5187 177.503 97.5702 177.204 96.3556 177.204C95.2242 177.204 94.3423 177.453 93.71 177.952C93.0778 178.452 92.7616 179.142 92.7616 180.032C92.7616 180.739 93.0611 181.347 93.6601 181.838C94.2591 182.328 95.2824 182.778 96.73 183.185C98.1776 183.593 99.309 184.042 100.124 184.533C100.94 185.024 101.547 185.598 101.938 186.247C102.329 186.896 102.529 187.67 102.529 188.551C102.529 189.957 101.98 191.089 100.881 191.937C99.7832 192.786 98.3107 193.21 96.4721 193.21C95.2741 193.21 94.1593 192.977 93.1277 192.52C92.0961 192.062 91.2974 191.438 90.7317 190.64C90.1743 189.841 89.8914 188.942 89.8914 187.927H92.1959C92.1959 188.976 92.5869 189.808 93.3606 190.415C94.1343 191.022 95.1743 191.33 96.4721 191.33C97.6867 191.33 98.6102 191.08 99.2591 190.59C99.908 190.099 100.224 189.425 100.224 188.568C100.224 187.719 99.9246 187.054 99.3256 186.588C98.7433 186.139 97.6534 185.681 96.0894 185.224Z" fill="white"/>
<path d="M117.72 175.581V187.412C117.711 189.051 117.196 190.398 116.172 191.438C115.149 192.478 113.76 193.069 112.013 193.194L111.405 193.219C109.5 193.219 107.986 192.703 106.855 191.679C105.723 190.656 105.149 189.242 105.133 187.437V175.581H107.404V187.362C107.404 188.618 107.753 189.6 108.444 190.298C109.134 190.997 110.124 191.347 111.405 191.347C112.703 191.347 113.693 190.997 114.384 190.307C115.074 189.616 115.415 188.635 115.415 187.378V175.59H117.72V175.581Z" fill="white"/>
<path d="M123.652 191.105H131.896V192.977H121.347V175.581H123.652V191.105Z" fill="white"/>
<path d="M143.244 177.462H137.653V192.977H135.374V177.462H129.791V175.59H143.244V177.462Z" fill="white"/>
<path d="M158.868 184.841C158.868 186.546 158.585 188.036 158.011 189.3C157.437 190.573 156.622 191.538 155.573 192.212C154.525 192.878 153.294 193.219 151.896 193.219C150.523 193.219 149.309 192.886 148.252 192.212C147.196 191.538 146.372 190.581 145.781 189.333C145.199 188.086 144.891 186.646 144.883 184.999V183.743C144.883 182.071 145.174 180.59 145.756 179.309C146.339 178.027 147.162 177.046 148.227 176.363C149.292 175.681 150.507 175.34 151.879 175.34C153.277 175.34 154.5 175.673 155.565 176.347C156.63 177.021 157.445 177.994 158.019 179.275C158.593 180.556 158.876 182.037 158.876 183.734V184.841H158.868ZM156.588 183.718C156.588 181.655 156.172 180.074 155.349 178.967C154.517 177.861 153.36 177.312 151.871 177.312C150.424 177.312 149.284 177.861 148.452 178.967C147.62 180.074 147.187 181.605 147.171 183.56V184.841C147.171 186.838 147.587 188.41 148.427 189.558C149.267 190.698 150.424 191.272 151.896 191.272C153.377 191.272 154.525 190.731 155.34 189.65C156.156 188.568 156.572 187.021 156.597 185.007V183.718H156.588Z" fill="white"/>
<path d="M168.685 185.939H164.6V192.977H162.295V175.581H168.052C170.016 175.581 171.522 176.031 172.578 176.921C173.635 177.811 174.159 179.109 174.159 180.814C174.159 181.896 173.868 182.844 173.277 183.643C172.695 184.45 171.879 185.049 170.831 185.448L174.916 192.828V192.969H172.453L168.685 185.939ZM164.6 184.067H168.127C169.267 184.067 170.174 183.776 170.848 183.185C171.522 182.595 171.854 181.804 171.854 180.814C171.854 179.733 171.53 178.909 170.889 178.335C170.249 177.761 169.325 177.47 168.111 177.462H164.6V184.067V184.067Z" fill="white"/>
<path d="M179.766 170.781H182.445L179.242 174.292L177.462 174.284L179.766 170.781ZM179.833 192.977H177.536V175.581H179.833V192.977Z" fill="white"/>
<path d="M193.851 188.427H186.563L184.924 192.977H182.561L189.2 175.581H191.205L197.861 192.977H195.506L193.851 188.427ZM187.254 186.555H193.169L190.207 178.418L187.254 186.555Z" fill="white"/>
<path d="M205.448 188.31C205.448 187.47 205.681 186.705 206.147 186.006C206.613 185.307 207.503 184.492 208.818 183.56C208.044 182.62 207.528 181.863 207.262 181.289C206.996 180.715 206.871 180.149 206.871 179.583C206.871 178.26 207.262 177.229 208.044 176.48C208.826 175.731 209.883 175.357 211.222 175.357C212.42 175.357 213.402 175.706 214.184 176.405C214.966 177.104 215.357 177.977 215.357 179.042C215.357 179.741 215.182 180.39 214.824 180.981C214.467 181.571 213.851 182.195 212.969 182.853L211.688 183.793L215.556 188.418C216.097 187.387 216.372 186.23 216.372 184.966H218.368C218.368 186.996 217.877 188.685 216.896 190.016L219.383 192.994H216.729L215.573 191.621C214.982 192.145 214.292 192.545 213.501 192.819C212.711 193.094 211.904 193.235 211.081 193.235C209.383 193.235 208.019 192.786 206.996 191.888C205.964 190.964 205.448 189.783 205.448 188.31ZM211.072 191.413C212.245 191.413 213.318 190.964 214.284 190.074L210.041 184.999L209.65 185.282C208.318 186.264 207.653 187.27 207.653 188.302C207.653 189.242 207.961 189.991 208.568 190.556C209.184 191.131 210.016 191.413 211.072 191.413ZM209.084 179.5C209.084 180.265 209.55 181.222 210.49 182.37L211.896 181.38C212.437 180.997 212.811 180.631 213.011 180.29C213.21 179.941 213.31 179.525 213.31 179.026C213.31 178.493 213.11 178.044 212.711 177.695C212.312 177.337 211.813 177.162 211.205 177.162C210.548 177.162 210.032 177.387 209.65 177.828C209.267 178.269 209.084 178.826 209.084 179.5Z" fill="white"/>
<path d="M237.129 188.427H229.841L228.202 192.977H225.839L232.478 175.581H234.483L241.139 192.977H238.784L237.129 188.427ZM230.54 186.555H236.455L233.493 178.418L230.54 186.555Z" fill="white"/>
<path d="M243.485 192.977V175.581H248.393C249.907 175.581 251.247 175.914 252.411 176.588C253.576 177.254 254.475 178.21 255.107 179.442C255.739 180.673 256.064 182.096 256.072 183.693V184.808C256.072 186.447 255.756 187.886 255.124 189.117C254.491 190.348 253.584 191.297 252.411 191.962C251.238 192.62 249.866 192.961 248.31 192.977H243.485ZM245.781 177.462V191.105H248.193C249.965 191.105 251.338 190.556 252.32 189.458C253.302 188.36 253.792 186.788 253.792 184.758V183.743C253.792 181.763 253.327 180.232 252.403 179.134C251.471 178.036 250.157 177.478 248.451 177.47H245.781V177.462Z" fill="white"/>
<path d="M262.494 175.581L268.185 189.774L273.875 175.581H276.845V192.977H274.549V186.205L274.766 178.893L269.05 192.977H267.295L261.596 178.926L261.821 186.205V192.977H259.524V175.581H262.494Z" fill="white"/>
<path d="M283.351 192.977H281.055V175.581H283.351V192.977Z" fill="white"/>
<path d="M300.914 192.977H298.609L289.849 179.575V192.977H287.544V175.581H289.849L298.626 189.042V175.581H300.905V192.977H300.914Z" fill="white"/>
<path d="M307.453 192.977H305.156V175.581H307.453V192.977Z" fill="white"/>
<path d="M316.77 185.224C314.807 184.658 313.376 183.967 312.478 183.135C311.579 182.312 311.13 181.297 311.13 180.082C311.13 178.709 311.679 177.578 312.769 176.68C313.867 175.781 315.289 175.332 317.037 175.332C318.235 175.332 319.291 175.565 320.231 176.022C321.171 176.488 321.895 177.12 322.403 177.936C322.918 178.751 323.176 179.633 323.176 180.598H320.872C320.872 179.541 320.539 178.718 319.865 178.11C319.2 177.503 318.251 177.204 317.037 177.204C315.905 177.204 315.023 177.453 314.391 177.952C313.759 178.452 313.443 179.142 313.443 180.032C313.443 180.739 313.742 181.347 314.341 181.838C314.94 182.328 315.963 182.778 317.411 183.185C318.859 183.593 319.99 184.042 320.805 184.533C321.621 185.024 322.228 185.598 322.619 186.247C323.01 186.896 323.21 187.67 323.21 188.551C323.21 189.957 322.661 191.089 321.562 191.937C320.464 192.786 318.992 193.21 317.153 193.21C315.955 193.21 314.84 192.977 313.809 192.52C312.777 192.062 311.978 191.438 311.413 190.64C310.855 189.841 310.572 188.942 310.572 187.927H312.877C312.877 188.976 313.268 189.808 314.042 190.415C314.815 191.022 315.855 191.33 317.153 191.33C318.368 191.33 319.291 191.08 319.94 190.59C320.589 190.099 320.905 189.425 320.905 188.568C320.905 187.719 320.606 187.054 320.007 186.588C319.416 186.139 318.334 185.681 316.77 185.224Z" fill="white"/>
<path d="M338.176 177.462H332.586V192.977H330.306V177.462H324.724V175.59H338.176V177.462Z" fill="white"/>
<path d="M347.136 185.939H343.052V192.977H340.747V175.581H346.504C348.467 175.581 349.973 176.031 351.03 176.921C352.086 177.811 352.611 179.109 352.611 180.814C352.611 181.896 352.319 182.844 351.729 183.643C351.146 184.45 350.331 185.049 349.283 185.448L353.368 192.828V192.969H350.905L347.136 185.939ZM343.052 184.067H346.579C347.719 184.067 348.626 183.776 349.299 183.185C349.973 182.595 350.306 181.804 350.306 180.814C350.306 179.733 349.982 178.909 349.341 178.335C348.7 177.761 347.777 177.47 346.562 177.462H343.052V184.067V184.067Z" fill="white"/>
<path d="M365.431 188.427H358.143L356.504 192.977H354.141L360.78 175.581H362.785L369.441 192.977H367.086L365.431 188.427ZM358.833 186.555H364.748L361.787 178.418L358.833 186.555Z" fill="white"/>
<path d="M384.449 187.462C384.233 189.3 383.551 190.723 382.411 191.721C381.271 192.719 379.749 193.219 377.852 193.219C375.797 193.219 374.15 192.478 372.91 191.006C371.67 189.533 371.055 187.561 371.055 185.091V183.418C371.055 181.804 371.346 180.382 371.92 179.15C372.494 177.928 373.318 176.979 374.374 176.322C375.431 175.665 376.662 175.34 378.051 175.34C379.898 175.34 381.379 175.856 382.494 176.888C383.609 177.919 384.258 179.35 384.441 181.172H382.136C381.937 179.783 381.504 178.776 380.838 178.152C380.173 177.528 379.241 177.22 378.051 177.22C376.587 177.22 375.439 177.761 374.607 178.843C373.775 179.924 373.359 181.472 373.359 183.468V185.157C373.359 187.046 373.75 188.551 374.541 189.666C375.331 190.781 376.429 191.338 377.852 191.338C379.125 191.338 380.106 191.047 380.788 190.473C381.471 189.899 381.92 188.893 382.145 187.453H384.449V187.462Z" fill="white"/>
<path d="M390.039 192.977H387.743V175.581H390.039V192.977Z" fill="white"/>
<path d="M407.61 184.841C407.61 186.546 407.319 188.036 406.753 189.3C406.179 190.573 405.364 191.538 404.316 192.212C403.267 192.877 402.036 193.219 400.638 193.219C399.266 193.219 398.051 192.886 396.995 192.212C395.938 191.538 395.114 190.581 394.524 189.333C393.941 188.085 393.642 186.646 393.625 184.999V183.743C393.625 182.071 393.916 180.59 394.499 179.308C395.081 178.027 395.905 177.046 396.961 176.363C398.026 175.681 399.241 175.34 400.614 175.34C402.011 175.34 403.234 175.673 404.299 176.347C405.364 177.021 406.179 177.994 406.753 179.275C407.327 180.556 407.61 182.037 407.61 183.734V184.841ZM405.331 183.718C405.331 181.655 404.915 180.074 404.091 178.967C403.259 177.861 402.103 177.312 400.614 177.312C399.166 177.312 398.026 177.861 397.194 178.967C396.362 180.074 395.93 181.605 395.913 183.56V184.841C395.913 186.838 396.329 188.41 397.169 189.558C398.01 190.698 399.166 191.272 400.638 191.272C402.119 191.272 403.267 190.731 404.083 189.65C404.898 188.568 405.314 187.021 405.339 185.007V183.718H405.331ZM401.737 170.898H404.407L401.204 174.408L399.424 174.4L401.737 170.898Z" fill="white"/>
<path d="M424.424 192.977H422.119L413.359 179.575V192.977H411.054V175.581H413.359L422.136 189.042V175.581H424.415V192.977H424.424Z" fill="white"/>
</svg>
