<svg width="254" height="106" viewBox="0 0 254 106" fill="none" xmlns="http://www.w3.org/2000/svg">
<path d="M9.38096 70.1768L15.4705 84.963C15.9863 86.1678 16.8051 86.7839 17.9271 86.8158V87.3361H10.9373V86.8158C12.2629 86.8295 12.6746 86.2134 12.1769 84.963L10.8423 81.6361H4.82059L3.55834 84.963C3.06521 86.1998 3.48143 86.8158 4.81154 86.8158V87.3361H0.5V86.8158C1.68986 86.8387 2.53136 86.2226 3.01092 84.963L8.5847 70.1768H9.38096V70.1768ZM5.01965 81.1387H10.6387C10.4306 80.6367 9.46691 78.2316 7.75225 73.9235C6.05569 78.4142 5.14633 80.8192 5.01965 81.1387Z" fill="#022158"/>
<path d="M29.6945 70.6819C30.7396 71.0424 31.2915 70.8736 31.3549 70.1753H31.8118L32.0833 75.1725L31.6489 75.2182C30.8844 72.1195 28.9887 70.5678 25.9575 70.5633C24.261 70.5769 22.872 71.4121 21.7953 73.0641C20.7412 74.6842 20.2118 76.6329 20.2028 78.9102C20.2028 80.4299 20.3928 81.799 20.7638 83.0266C21.1076 84.1766 21.7048 85.1167 22.5644 85.8561C23.3878 86.5862 24.4103 86.9513 25.6273 86.9513C26.7628 86.9742 27.6586 86.6866 28.3146 86.0797C28.9752 85.491 29.3099 84.6923 29.3099 83.6838V83.0722C29.3099 81.621 28.5363 80.7083 26.9981 80.3477V79.8275H34.6666V80.3477C33.1374 80.6854 32.3773 81.5936 32.3773 83.0722V85.0894C31.5494 85.8104 30.6174 86.3854 29.5814 86.8099C28.4142 87.2982 27.1067 87.5583 25.668 87.5994C23.0892 87.645 20.9674 86.8418 19.3115 85.1806C17.6104 83.4966 16.7644 81.4065 16.7644 78.9056C16.7644 77.3175 17.149 75.8251 17.9226 74.4241C18.6736 73.055 19.7504 71.9643 21.1619 71.1474C22.578 70.3214 24.2112 69.9106 26.0571 69.9106C27.0071 69.9243 28.2196 70.1753 29.6945 70.6819Z" fill="#022158"/>
<path d="M44.5835 70.1753C45.9634 70.1753 47.1397 70.6499 48.1124 71.6083C49.0851 72.5621 49.5737 73.7212 49.5737 75.0812C49.5737 76.4229 49.0851 77.573 48.1124 78.5313C47.1397 79.4852 45.9634 79.9643 44.5835 79.9643H40.4575V84.706C40.4485 86.1435 41.1542 86.8646 42.5748 86.8646V87.3392H35.3633V86.8646C36.7839 86.8646 37.4851 86.1435 37.4806 84.706V72.8085C37.4806 71.3299 36.7748 70.6134 35.3633 70.6499V70.1799H44.5835V70.1753ZM40.4575 79.4304H42.421C43.5294 79.4304 44.4795 79.0105 45.2757 78.1617C46.072 77.3174 46.4701 76.2815 46.4701 75.0538C46.4701 73.8445 46.072 72.8131 45.2757 71.9642C44.4976 71.1382 43.5475 70.7275 42.421 70.7275H40.4575V79.4304Z" fill="#022158"/>
<path d="M63.3226 70.1754L63.5805 74.269L63.1235 74.3374C62.9607 71.9096 61.6079 70.6956 59.0654 70.6956H54.7991V77.8378H56.9616C58.622 77.8378 59.4499 76.9798 59.4499 75.2684H59.9069V80.9867H59.4499C59.4499 79.2434 58.622 78.3671 56.9616 78.3671H54.7991V83.9896C54.7991 85.9063 56.0794 86.8647 58.6356 86.8647C62.2142 86.8647 64.0827 85.3724 64.2455 82.3969L64.6663 82.4334L64.3767 87.3256H49.6958V86.851C51.1164 86.819 51.8222 86.1071 51.8222 84.7152V72.7949C51.8312 71.3346 51.1209 70.6135 49.6958 70.6363V70.1663H63.3226V70.1754Z" fill="#022158"/>
<path d="M82.5051 70.6818C83.5502 71.0423 84.0886 70.8735 84.1293 70.1616H84.5998L84.9029 75.1724L84.4324 75.2181C83.6678 72.1148 81.7812 70.5632 78.7772 70.5632C77.0942 70.5723 75.7007 71.412 74.6059 73.0869C73.5563 74.6887 73.027 76.6374 73.027 78.9238C73.027 84.2769 75.0447 86.9512 79.0803 86.9512C81.8401 86.9512 83.79 85.8286 84.9391 83.5787L85.3825 83.7065C84.2741 86.2941 82.1251 87.5856 78.931 87.5856C77.0218 87.5856 75.375 87.2068 73.9861 86.4401C72.6469 85.7008 71.5792 84.6511 70.783 83.2912C70.0048 81.954 69.6157 80.4982 69.6157 78.9146C69.6157 77.2717 69.9867 75.7703 70.7287 74.4103C71.4661 73.064 72.5564 71.9824 73.9906 71.1564C75.4248 70.3304 77.049 69.9197 78.8632 69.9197C79.8223 69.9242 81.0393 70.1752 82.5051 70.6818Z" fill="#022158"/>
<path d="M101.593 72.2836C103.117 73.8718 103.882 75.9802 103.882 78.6134C103.882 80.3111 103.479 81.8491 102.679 83.2227C101.869 84.6146 100.774 85.6962 99.394 86.4675C98.0005 87.2524 96.4895 87.6449 94.8698 87.6449C92.3815 87.6449 90.3004 86.8052 88.6174 85.1212C86.9254 83.4463 86.0793 81.3927 86.0793 78.9557C86.0793 77.2763 86.4458 75.7611 87.1787 74.4149C87.9343 73.0458 89.0155 71.9505 90.418 71.1245C91.8205 70.2984 93.4085 69.8832 95.1865 69.874C97.9101 69.8786 100.045 70.6818 101.593 72.2836ZM92.1463 71.6949C91.2821 72.4571 90.6171 73.4702 90.1466 74.7389C89.6806 75.9939 89.4453 77.3949 89.4453 78.9374C89.4453 81.1919 89.9792 83.1086 91.0469 84.6785C92.0965 86.2347 93.3814 87.0151 94.8924 87.0151C95.8832 87.0151 96.8152 86.6546 97.6974 85.929C98.5525 85.2125 99.2447 84.2085 99.765 82.9124C100.281 81.6391 100.534 80.2153 100.534 78.6454C100.534 76.1947 100.055 74.2369 99.0954 72.7719C98.1227 71.2842 96.7926 70.5449 95.1096 70.5449C94.0102 70.5403 93.0194 70.9237 92.1463 71.6949Z" fill="#022158"/>
<path d="M110.532 70.1752C110.532 70.4445 110.727 70.8187 111.116 71.307C112.672 73.6436 115.256 77.226 118.866 82.059V72.8039C118.866 71.3663 118.151 70.6453 116.726 70.6453V70.1752H121.508V70.6681C120.105 70.6544 119.404 71.3663 119.404 72.8039V87.33H118.504L107.234 72.0463V84.6967C107.225 86.1571 107.931 86.8873 109.351 86.8873V87.3254H104.583V86.8645C105.972 86.8645 106.669 86.1389 106.678 84.6967V72.7993C106.669 71.3618 105.972 70.6407 104.583 70.6407V70.1707H110.532V70.1752Z" fill="#022158"/>
<path d="M138.831 70.1753L139.089 74.2917L138.632 74.3145C138.469 71.8958 137.211 70.6819 134.859 70.6819H132.135V84.7242C132.135 86.1481 132.85 86.86 134.275 86.86V87.3346H127.027V86.86C128.453 86.86 129.167 86.1481 129.167 84.7242V70.6819H126.444C124.091 70.6819 122.834 71.8912 122.666 74.3145L122.209 74.2689L122.467 70.1753H138.831V70.1753Z" fill="#022158"/>
<path d="M145.749 70.1753L151.838 84.9615C152.354 86.1663 153.173 86.7824 154.29 86.8144V87.3346H147.301V86.8144C148.626 86.8281 149.038 86.212 148.54 84.9615L147.21 81.6346H141.188L139.926 84.9615C139.433 86.1983 139.854 86.8144 141.179 86.8144V87.3346H136.863V86.8144C138.058 86.8372 138.895 86.2211 139.374 84.9615L144.953 70.1753H145.749V70.1753ZM141.392 81.1372H147.016C146.803 80.6352 145.844 78.2301 144.129 73.9221C142.428 78.4127 141.514 80.8177 141.392 81.1372Z" fill="#022158"/>
<path d="M163.845 70.1754C165.094 70.1754 166.166 70.5633 167.062 71.3437C167.935 72.1195 168.369 73.0688 168.369 74.1823C168.369 75.2502 167.958 76.1766 167.13 76.9524C166.302 77.7145 165.284 78.1344 164.067 78.212H164.967C166.207 78.2211 167.288 78.6729 168.207 79.5674C169.111 80.4573 169.564 81.5298 169.564 82.7848C169.564 84.0398 169.111 85.1077 168.207 85.9793C167.288 86.8738 166.207 87.3256 164.967 87.3256H154.412V86.851C155.837 86.8692 156.552 86.1573 156.552 84.7152V72.7949C156.552 71.3893 155.837 70.6683 154.412 70.6363V70.1663H163.845V70.1754ZM159.52 78.0477H161.927C162.963 78.0477 163.782 77.6963 164.384 76.998C164.985 76.2998 165.284 75.4236 165.284 74.3694C165.284 73.3243 164.985 72.4527 164.384 71.7498C163.782 71.0516 162.968 70.7002 161.927 70.7002H159.52V78.0477ZM159.52 84.9844C159.52 85.4864 159.71 85.9246 160.086 86.2988C160.461 86.673 161.076 86.8601 161.927 86.8601C163.112 86.8601 164.162 86.4905 165.085 85.7466C166.003 85.0027 166.465 83.9896 166.465 82.698C166.465 81.5024 166.162 80.5121 165.56 79.7271C164.958 78.9422 164.144 78.5497 163.121 78.5497H159.52V84.9844V84.9844Z" fill="#022158"/>
<path d="M176.902 70.1753V70.6453C175.491 70.6453 174.785 71.371 174.785 72.8131V84.6968C174.785 86.1344 175.491 86.8554 176.902 86.8554V87.3301H169.677V86.8554C171.089 86.8554 171.794 86.1344 171.794 84.6968V72.8131C171.794 71.3755 171.089 70.6499 169.677 70.6453V70.1753H176.902Z" fill="#022158"/>
<path d="M184.824 70.1753V70.6453C183.412 70.6453 182.707 71.3664 182.707 72.804V83.994C182.707 85.9016 183.982 86.86 186.529 86.86C187.48 86.86 188.321 86.7322 189.054 86.4812C189.787 86.2302 190.443 85.7602 191.031 85.071C191.615 84.3819 191.986 83.492 192.139 82.4013L192.583 82.4241L192.289 87.3301H177.594L177.608 86.8919C179.01 86.8919 179.712 86.1709 179.712 84.7242V72.804C179.712 71.3664 179.006 70.6453 177.594 70.6453V70.1753H184.824Z" fill="#022158"/>
<path d="M200.514 70.1753V70.6453C199.102 70.6453 198.396 71.371 198.396 72.8131V84.6968C198.396 86.1344 199.102 86.8554 200.514 86.8554V87.3301H193.289V86.8554C194.7 86.8554 195.406 86.1344 195.406 84.6968V72.8131C195.406 71.3755 194.7 70.6499 193.289 70.6453V70.1753H200.514Z" fill="#022158"/>
<path d="M210.168 70.1752C211.417 70.1752 212.593 70.3988 213.697 70.8461C214.828 71.3161 215.792 71.9368 216.584 72.708C217.38 73.493 218.004 74.392 218.466 75.4097C218.963 76.4867 219.221 77.6003 219.235 78.7458C219.298 81.096 218.538 83.1177 216.955 84.8063C215.38 86.4903 213.448 87.33 211.159 87.33H201.21V86.8553C202.636 86.8325 203.35 86.1206 203.35 84.7196V72.7993C203.35 71.3846 202.636 70.6635 201.21 70.6407V70.1707H210.168V70.1752ZM206.323 83.9894C206.323 85.8513 207.418 86.7823 209.607 86.7823C210.494 86.7823 211.299 86.6546 212.014 86.4036C212.738 86.1526 213.444 85.6551 214.131 84.9158C214.801 84.1947 215.303 83.3185 215.638 82.2871C215.995 81.2101 216.158 80.0281 216.127 78.7366C216.054 76.4959 215.33 74.5974 213.941 73.0412C213.272 72.2882 212.43 71.704 211.417 71.2979C210.404 70.8871 209.395 70.6863 208.39 70.6863H206.323V83.9894V83.9894Z" fill="#022158"/>
<path d="M226.813 70.1753L232.902 84.9615C233.418 86.1663 234.237 86.7824 235.359 86.8144V87.3346H228.369V86.8144C229.695 86.8281 230.106 86.212 229.609 84.9615L228.274 81.6346H222.252L220.99 84.9615C220.502 86.1983 220.918 86.8144 222.239 86.8144V87.3346H217.923V86.8144C219.117 86.8372 219.954 86.2211 220.438 84.9615L226.012 70.1753H226.813V70.1753ZM222.452 81.1372H228.075C227.862 80.6352 226.903 78.2301 225.189 73.9221C223.488 78.4127 222.574 80.8177 222.452 81.1372Z" fill="#022158"/>
<path d="M244.425 70.1752C245.674 70.1752 246.846 70.3988 247.954 70.8461C249.085 71.3161 250.044 71.9368 250.841 72.708C251.637 73.493 252.261 74.392 252.723 75.4097C253.22 76.4867 253.478 77.6003 253.496 78.7458C253.56 81.096 252.8 83.1177 251.216 84.8063C249.642 86.4903 247.71 87.33 245.416 87.33H235.468V86.8553C236.893 86.8325 237.607 86.1206 237.607 84.7196V72.7993C237.607 71.3846 236.893 70.6635 235.468 70.6407V70.1707H244.425V70.1752ZM240.58 83.9894C240.58 85.8513 241.675 86.7823 243.864 86.7823C244.751 86.7823 245.556 86.6546 246.271 86.4036C246.995 86.1526 247.701 85.6551 248.389 84.9158C249.058 84.1947 249.56 83.3185 249.9 82.2871C250.257 81.2101 250.42 80.0281 250.388 78.7366C250.316 76.4959 249.587 74.5974 248.203 73.0412C247.533 72.2882 246.692 71.704 245.679 71.2979C244.665 70.8871 243.656 70.6863 242.652 70.6863H240.584V83.9894H240.58Z" fill="#022158"/>
<path d="M126.141 53.5225L119.581 37.5908C115.803 37.0888 111.885 36.459 107.827 35.6877C108.872 38.2936 109.537 39.9365 109.813 40.5982H90.7981C91.0243 40.0095 92.0241 37.3763 93.7976 32.7031C93.1914 32.5708 92.5896 32.443 91.9924 32.3152L83.9982 53.5179C82.365 57.7758 79.5329 59.8614 75.4973 59.7793V61.5363H90.0878V59.7793C85.6088 59.7793 84.1973 57.6937 85.8577 53.5179L90.1285 42.2731H110.492L114.998 53.5179C116.685 57.7439 115.287 59.834 110.808 59.7793V61.5363H134.452V59.7793C130.647 59.6789 127.878 57.5933 126.141 53.5225Z" fill="#9B021F"/>
<path d="M100.045 13.513C102.09 18.6471 103.809 22.9643 105.221 26.5011C109.623 26.8662 113.555 27.2313 116.536 27.5188L105.542 0.830566H102.85L93.5034 25.6112C94.1413 25.6523 94.7747 25.6979 95.4126 25.7435C96.6975 22.3619 98.2402 18.2865 100.045 13.513Z" fill="#9B021F"/>
<path d="M157.195 60.2629C145.161 60.2629 138.433 53.2212 137.003 39.156C133.389 38.9963 129.593 38.7225 125.621 38.3118C126.209 41.6889 127.362 44.8926 129.122 47.9046C131.81 52.5047 135.42 56.0552 139.953 58.5516C144.645 61.13 150.223 62.4215 156.679 62.4215C167.487 62.4215 174.762 58.0496 178.504 49.301L177.002 48.8629C173.124 56.4614 166.524 60.2629 157.195 60.2629Z" fill="#9B021F"/>
<path d="M142.052 10.6835C145.767 5.02002 150.472 2.17687 156.168 2.14948C166.343 2.14948 172.717 7.40225 175.301 17.9032L176.884 17.7435L175.857 0.794078H174.274C174.142 3.18543 172.31 3.77414 168.777 2.55108C163.823 0.848841 159.71 0 156.444 0C150.305 0 144.808 1.39648 139.958 4.18487C135.108 6.97783 131.434 10.647 128.928 15.1924C126.725 19.2404 125.494 23.658 125.227 28.4498C127.779 28.7373 131.828 29.1754 136.727 29.6227C136.845 22.2296 138.619 15.9135 142.052 10.6835Z" fill="#9B021F"/>
<path d="M93.793 31.366L107.823 34.3506C111.881 35.1219 115.799 35.7471 119.576 36.2537C121.635 36.5275 123.648 36.7648 125.621 36.9702C129.588 37.3809 133.389 37.6547 137.003 37.8145C169.166 39.2246 187.082 31.6125 187.082 31.6125C174.382 33.7984 151.617 32.3198 136.723 30.9598L125.222 29.787C123.336 29.5725 122.264 29.4402 122.264 29.4402C122.264 29.4402 120.074 29.2074 116.532 28.8651L105.217 27.8474C102.122 27.5873 98.7968 27.3272 95.4127 27.0899C94.7793 27.0442 94.1414 27.0032 93.5035 26.9575C83.3422 26.2821 72.9547 25.8577 66.9104 26.3734C73.5428 27.3044 81.7904 28.8149 91.9879 30.9827L93.793 31.366Z" fill="#022158"/>
<path d="M29.6311 102.833C29.5135 103.841 29.147 104.622 28.5227 105.169C27.9029 105.717 27.0749 105.991 26.0434 105.991C24.9259 105.991 24.0302 105.585 23.3561 104.777C22.682 103.969 22.3472 102.888 22.3472 101.532V100.615C22.3472 99.7295 22.5055 98.9492 22.8177 98.2737C23.1298 97.6029 23.5777 97.0826 24.1523 96.7221C24.7269 96.3616 25.3965 96.1836 26.152 96.1836C27.1564 96.1836 27.9617 96.4665 28.5679 97.0324C29.1742 97.5983 29.527 98.3833 29.6266 99.3827H28.3734C28.2648 98.6206 28.0295 98.0684 27.6676 97.7261C27.3057 97.3838 26.799 97.215 26.152 97.215C25.3557 97.215 24.7314 97.5116 24.279 98.1049C23.8266 98.6982 23.6004 99.547 23.6004 100.642V101.569C23.6004 102.605 23.813 103.431 24.2428 104.042C24.6726 104.654 25.2698 104.959 26.0434 104.959C26.7356 104.959 27.2695 104.8 27.6405 104.485C28.0114 104.17 28.2557 103.618 28.3779 102.828H29.6311V102.833Z" fill="#022158"/>
<path d="M38.6117 101.395C38.6117 102.331 38.4579 103.148 38.1457 103.841C37.8336 104.54 37.3902 105.069 36.8202 105.439C36.2501 105.804 35.5805 105.991 34.8205 105.991C34.074 105.991 33.4135 105.808 32.8389 105.439C32.2643 105.069 31.8164 104.544 31.4952 103.86C31.1785 103.175 31.0111 102.386 31.0066 101.482V100.793C31.0066 99.8756 31.1649 99.0632 31.4816 98.3604C31.7983 97.6576 32.2462 97.1191 32.8253 96.7449C33.4044 96.3707 34.0649 96.1836 34.8114 96.1836C35.5715 96.1836 36.2365 96.3661 36.8156 96.7358C37.3947 97.1054 37.8381 97.6394 38.1503 98.3422C38.4624 99.045 38.6162 99.8573 38.6162 100.788V101.395H38.6117ZM37.3676 100.779C37.3676 99.6474 37.1414 98.7803 36.6935 98.1733C36.2411 97.5664 35.6122 97.2652 34.8024 97.2652C34.0152 97.2652 33.3954 97.5664 32.9429 98.1733C32.4905 98.7803 32.2553 99.62 32.2462 100.692V101.395C32.2462 102.491 32.4724 103.353 32.9294 103.983C33.3863 104.608 34.0152 104.923 34.8159 104.923C35.6212 104.923 36.2456 104.626 36.6889 104.033C37.1323 103.44 37.3585 102.591 37.3721 101.487V100.779H37.3676Z" fill="#022158"/>
<path d="M47.7503 105.859H46.4971L41.7332 98.5065V105.859H40.48V96.3159H41.7332L46.5062 103.7V96.3159H47.7458V105.859H47.7503Z" fill="#022158"/>
<path d="M52.7543 101.605C51.6866 101.295 50.9039 100.916 50.4198 100.46C49.9312 100.008 49.6869 99.4511 49.6869 98.7848C49.6869 98.0318 49.9855 97.4111 50.5782 96.9183C51.1754 96.4254 51.949 96.179 52.8991 96.179C53.5505 96.179 54.1296 96.3067 54.6363 96.5577C55.1476 96.8133 55.5412 97.1601 55.8172 97.6074C56.0977 98.0546 56.2379 98.5384 56.2379 99.0678H54.9847C54.9847 98.4882 54.8037 98.0364 54.4373 97.7032C54.0754 97.3701 53.5596 97.2058 52.8991 97.2058C52.2838 97.2058 51.8042 97.3427 51.4604 97.6165C51.1165 97.8903 50.9446 98.2691 50.9446 98.7574C50.9446 99.1453 51.1075 99.4785 51.4332 99.7477C51.759 100.017 52.3154 100.263 53.1027 100.487C53.8899 100.711 54.5051 100.957 54.9485 101.226C55.3919 101.496 55.7221 101.811 55.9348 102.166C56.1474 102.522 56.256 102.947 56.256 103.431C56.256 104.202 55.9574 104.823 55.3602 105.288C54.763 105.754 53.9622 105.986 52.9624 105.986C52.3109 105.986 51.7047 105.858 51.1437 105.607C50.5827 105.356 50.1484 105.014 49.8407 104.576C49.5376 104.138 49.3838 103.645 49.3838 103.088H50.637C50.637 103.663 50.8496 104.12 51.2704 104.453C51.6911 104.786 52.2566 104.955 52.9624 104.955C53.6229 104.955 54.1251 104.818 54.478 104.549C54.8309 104.279 55.0028 103.91 55.0028 103.44C55.0028 102.974 54.8399 102.609 54.5142 102.354C54.1975 102.107 53.6048 101.856 52.7543 101.605Z" fill="#022158"/>
<path d="M64.517 96.3159V102.805C64.5124 103.704 64.2319 104.444 63.6755 105.014C63.119 105.585 62.3634 105.909 61.4134 105.977L61.0831 105.991C60.0471 105.991 59.2237 105.708 58.6084 105.147C57.9931 104.585 57.6809 103.809 57.6719 102.819V96.3159H58.907V102.778C58.907 103.467 59.097 104.006 59.4725 104.389C59.848 104.772 60.3864 104.964 61.0831 104.964C61.7889 104.964 62.3273 104.772 62.7028 104.394C63.0783 104.015 63.2638 103.476 63.2638 102.787V96.3205H64.517V96.3159Z" fill="#022158"/>
<path d="M67.7427 104.832H72.2262V105.859H66.4895V96.3159H67.7427V104.832Z" fill="#022158"/>
<path d="M78.3974 97.3474H75.3571V105.859H74.1175V97.3474H71.0818V96.3206H78.3974V97.3474Z" fill="#022158"/>
<path d="M86.8937 101.395C86.8937 102.331 86.7399 103.148 86.4277 103.841C86.1156 104.54 85.6722 105.069 85.1021 105.439C84.5321 105.804 83.8625 105.991 83.1025 105.991C82.356 105.991 81.6954 105.808 81.1209 105.439C80.5463 105.069 80.0984 104.544 79.7772 103.86C79.4605 103.175 79.2931 102.386 79.2886 101.482V100.793C79.2886 99.8756 79.4469 99.0632 79.7636 98.3604C80.0803 97.6576 80.5282 97.1191 81.1073 96.7449C81.6864 96.3707 82.3469 96.1836 83.0934 96.1836C83.8535 96.1836 84.5185 96.3661 85.0976 96.7358C85.6767 97.1054 86.1201 97.6394 86.4322 98.3422C86.7444 99.045 86.8982 99.8573 86.8982 100.788V101.395H86.8937ZM85.6541 100.779C85.6541 99.6474 85.4279 98.7803 84.98 98.1733C84.5276 97.5664 83.8987 97.2652 83.0889 97.2652C82.3017 97.2652 81.6819 97.5664 81.2294 98.1733C80.777 98.7803 80.5418 99.62 80.5327 100.692V101.395C80.5327 102.491 80.7589 103.353 81.2159 103.983C81.6728 104.608 82.3017 104.923 83.1025 104.923C83.9078 104.923 84.5321 104.626 84.9755 104.033C85.4188 103.44 85.645 102.591 85.6586 101.487V100.779H85.6541Z" fill="#022158"/>
<path d="M92.2321 101.998H90.0108V105.859H88.7576V96.3159H91.8883C92.956 96.3159 93.7749 96.5623 94.3495 97.0507C94.924 97.539 95.209 98.2509 95.209 99.1865C95.209 99.7797 95.0507 100.3 94.7295 100.738C94.4128 101.181 93.9694 101.509 93.3994 101.728L95.6207 105.776V105.854H94.2816L92.2321 101.998ZM90.0108 100.971H91.929C92.5488 100.971 93.042 100.811 93.4084 100.487C93.7749 100.163 93.9559 99.7295 93.9559 99.1865C93.9559 98.5932 93.7794 98.1414 93.431 97.8265C93.0827 97.5116 92.5805 97.3519 91.92 97.3473H90.0108V100.971V100.971Z" fill="#022158"/>
<path d="M98.2583 93.6826H99.7151L97.9733 95.6085L97.0051 95.6039L98.2583 93.6826ZM98.2945 105.858H97.0458V96.3159H98.2945V105.858Z" fill="#022158"/>
<path d="M105.918 103.362H101.955L101.063 105.859H99.7786L103.389 96.3159H104.479L108.099 105.859H106.818L105.918 103.362ZM102.33 102.335H105.547L103.936 97.8721L102.33 102.335Z" fill="#022158"/>
<path d="M112.225 103.298C112.225 102.837 112.351 102.417 112.605 102.034C112.858 101.651 113.342 101.204 114.057 100.692C113.636 100.177 113.356 99.7614 113.211 99.4465C113.066 99.1316 112.998 98.8213 112.998 98.511C112.998 97.7854 113.211 97.2195 113.636 96.8087C114.061 96.398 114.636 96.1926 115.364 96.1926C116.016 96.1926 116.55 96.3843 116.975 96.7677C117.4 97.151 117.613 97.6302 117.613 98.2143C117.613 98.5977 117.518 98.9536 117.323 99.2777C117.129 99.6017 116.794 99.944 116.314 100.304L115.618 100.82L117.721 103.358C118.016 102.792 118.165 102.157 118.165 101.464H119.251C119.251 102.577 118.984 103.504 118.45 104.234L119.803 105.868H118.359L117.731 105.115C117.409 105.402 117.034 105.621 116.604 105.772C116.174 105.922 115.735 106 115.287 106C114.365 106 113.623 105.753 113.066 105.261C112.505 104.754 112.225 104.106 112.225 103.298ZM115.283 105C115.921 105 116.504 104.754 117.029 104.266L114.722 101.482L114.509 101.637C113.785 102.176 113.424 102.728 113.424 103.294C113.424 103.809 113.591 104.22 113.921 104.53C114.256 104.845 114.708 105 115.283 105ZM114.202 98.4653C114.202 98.8852 114.455 99.41 114.966 100.04L115.731 99.4967C116.025 99.2868 116.229 99.086 116.337 98.8989C116.446 98.7072 116.5 98.479 116.5 98.2052C116.5 97.9131 116.391 97.6667 116.174 97.475C115.957 97.2788 115.686 97.1829 115.355 97.1829C114.998 97.1829 114.717 97.3062 114.509 97.548C114.301 97.7899 114.202 98.0957 114.202 98.4653Z" fill="#9B021F"/>
<path d="M129.453 103.362H125.489L124.598 105.859H123.313L126.924 96.3159H128.014L131.633 105.859H130.353L129.453 103.362ZM125.869 102.335H129.086L127.475 97.8721L125.869 102.335Z" fill="#022158"/>
<path d="M132.909 105.859V96.3159H135.578C136.402 96.3159 137.13 96.4985 137.763 96.8681C138.397 97.2332 138.885 97.758 139.229 98.4335C139.573 99.1089 139.749 99.8893 139.754 100.765V101.377C139.754 102.276 139.582 103.066 139.238 103.741C138.894 104.416 138.401 104.937 137.763 105.302C137.125 105.662 136.379 105.849 135.533 105.859H132.909ZM134.158 97.3473V104.832H135.47C136.433 104.832 137.18 104.531 137.714 103.928C138.247 103.326 138.514 102.463 138.514 101.35V100.793C138.514 99.7067 138.261 98.867 137.759 98.2646C137.252 97.6622 136.537 97.3564 135.61 97.3519H134.158V97.3473Z" fill="#022158"/>
<path d="M143.247 96.3159L146.341 104.102L149.436 96.3159H151.051V105.859H149.802V102.144L149.92 98.1322L146.812 105.859H145.857L142.758 98.1505L142.88 102.144V105.859H141.632V96.3159H143.247Z" fill="#022158"/>
<path d="M154.589 105.859H153.34V96.3159H154.589V105.859Z" fill="#022158"/>
<path d="M164.139 105.859H162.886L158.122 98.5065V105.859H156.869V96.3159H158.122L162.895 103.7V96.3159H164.135V105.859H164.139Z" fill="#022158"/>
<path d="M167.695 105.859H166.447V96.3159H167.695V105.859Z" fill="#022158"/>
<path d="M172.762 101.605C171.695 101.295 170.917 100.916 170.428 100.46C169.939 100.008 169.695 99.4511 169.695 98.7848C169.695 98.0318 169.994 97.4111 170.586 96.9183C171.183 96.4254 171.957 96.179 172.907 96.179C173.559 96.179 174.133 96.3067 174.644 96.5577C175.156 96.8133 175.549 97.1601 175.825 97.6074C176.106 98.0546 176.246 98.5384 176.246 99.0678H174.993C174.993 98.4882 174.812 98.0364 174.445 97.7032C174.083 97.3701 173.568 97.2058 172.907 97.2058C172.292 97.2058 171.812 97.3427 171.468 97.6165C171.125 97.8903 170.953 98.2691 170.953 98.7574C170.953 99.1453 171.116 99.4785 171.441 99.7477C171.767 100.017 172.324 100.263 173.111 100.487C173.898 100.711 174.513 100.957 174.957 101.226C175.4 101.496 175.73 101.811 175.943 102.166C176.156 102.522 176.264 102.947 176.264 103.431C176.264 104.202 175.965 104.823 175.368 105.288C174.771 105.754 173.97 105.986 172.97 105.986C172.319 105.986 171.713 105.858 171.152 105.607C170.591 105.356 170.156 105.014 169.849 104.576C169.546 104.138 169.392 103.645 169.392 103.088H170.645C170.645 103.663 170.858 104.12 171.278 104.453C171.699 104.786 172.265 104.955 172.97 104.955C173.631 104.955 174.133 104.818 174.486 104.549C174.839 104.279 175.011 103.91 175.011 103.44C175.011 102.974 174.848 102.609 174.522 102.354C174.201 102.107 173.613 101.856 172.762 101.605Z" fill="#022158"/>
<path d="M184.403 97.3474H181.363V105.859H180.123V97.3474H177.088V96.3206H184.403V97.3474Z" fill="#022158"/>
<path d="M189.276 101.998H187.054V105.859H185.801V96.3159H188.932C190 96.3159 190.819 96.5623 191.393 97.0507C191.968 97.539 192.253 98.2509 192.253 99.1865C192.253 99.7797 192.094 100.3 191.773 100.738C191.456 101.181 191.013 101.509 190.443 101.728L192.664 105.776V105.854H191.325L189.276 101.998ZM187.054 100.971H188.973C189.593 100.971 190.086 100.811 190.452 100.487C190.819 100.163 191 99.7295 191 99.1865C191 98.5932 190.823 98.1414 190.475 97.8265C190.126 97.5116 189.624 97.3519 188.964 97.3473H187.054V100.971V100.971Z" fill="#022158"/>
<path d="M199.224 103.362H195.261L194.37 105.859H193.085L196.695 96.3159H197.786L201.405 105.859H200.125L199.224 103.362ZM195.637 102.335H198.853L197.243 97.8721L195.637 102.335Z" fill="#022158"/>
<path d="M209.567 102.833C209.449 103.841 209.078 104.622 208.458 105.169C207.838 105.717 207.01 105.991 205.979 105.991C204.862 105.991 203.966 105.585 203.292 104.777C202.618 103.969 202.283 102.888 202.283 101.532V100.615C202.283 99.7295 202.441 98.9492 202.753 98.2737C203.065 97.6029 203.513 97.0826 204.088 96.7221C204.662 96.3616 205.332 96.1836 206.088 96.1836C207.092 96.1836 207.897 96.4665 208.503 97.0324C209.11 97.5983 209.463 98.3833 209.562 99.3827H208.309C208.2 98.6206 207.965 98.0684 207.603 97.7261C207.241 97.3838 206.735 97.215 206.088 97.215C205.291 97.215 204.667 97.5116 204.215 98.1049C203.762 98.6982 203.536 99.547 203.536 100.642V101.569C203.536 102.605 203.749 103.431 204.178 104.042C204.608 104.654 205.205 104.959 205.979 104.959C206.671 104.959 207.205 104.8 207.576 104.485C207.947 104.17 208.191 103.618 208.313 102.828H209.567V102.833Z" fill="#022158"/>
<path d="M212.607 105.859H211.358V96.3159H212.607V105.859Z" fill="#022158"/>
<path d="M222.162 101.395C222.162 102.331 222.003 103.148 221.696 103.841C221.384 104.54 220.94 105.069 220.37 105.439C219.8 105.804 219.131 105.991 218.371 105.991C217.624 105.991 216.963 105.808 216.389 105.439C215.814 105.069 215.366 104.544 215.045 103.86C214.729 103.175 214.566 102.386 214.557 101.482V100.793C214.557 99.8756 214.715 99.0632 215.032 98.3604C215.348 97.6576 215.796 97.1191 216.371 96.7449C216.95 96.3707 217.61 96.1836 218.357 96.1836C219.117 96.1836 219.782 96.3661 220.361 96.7358C220.94 97.1054 221.384 97.6394 221.696 98.3422C222.008 99.045 222.162 99.8573 222.162 100.788V101.395ZM220.922 100.779C220.922 99.6474 220.696 98.7803 220.248 98.1733C219.796 97.5663 219.167 97.2652 218.357 97.2652C217.57 97.2652 216.95 97.5663 216.498 98.1733C216.045 98.7803 215.81 99.62 215.801 100.692V101.395C215.801 102.491 216.027 103.353 216.484 103.983C216.941 104.608 217.57 104.923 218.371 104.923C219.176 104.923 219.8 104.626 220.244 104.033C220.687 103.44 220.913 102.591 220.927 101.487V100.779H220.922ZM218.968 93.7466H220.42L218.678 95.6724L217.71 95.6679L218.968 93.7466Z" fill="#022158"/>
<path d="M231.305 105.859H230.052L225.288 98.5065V105.859H224.035V96.3159H225.288L230.061 103.7V96.3159H231.301V105.859H231.305Z" fill="#022158"/>
</svg>
