<svg width="1005" height="287" viewBox="0 0 1005 287" fill="none" xmlns="http://www.w3.org/2000/svg">
<path d="M393.824 68.7181V109.823H401.32C408.455 109.823 414.616 108.217 419.804 105.007C424.993 101.797 427.587 96.5798 427.587 89.3564C427.587 82.133 424.993 76.8969 419.804 73.6483C414.654 70.3615 408.493 68.7181 401.32 68.7181H393.824ZM351.592 206.307V39.1365H414.425C422.437 39.1365 429.857 40.0728 436.686 41.9456C443.553 43.8183 449.561 46.723 454.712 50.6595C459.9 54.5579 463.925 59.5073 466.786 65.5077C469.685 71.4698 471.135 78.483 471.135 86.5473C471.135 98.8538 468.446 108.944 463.066 116.817C457.725 124.69 450.439 130.423 441.206 134.015C432.012 137.608 421.597 139.404 409.961 139.404C406.833 139.404 401.454 139.079 393.824 138.43V206.307H351.592Z" fill="#3D464D"/>
<path d="M584.031 132.353H551.699C551.699 125.894 551.07 120.964 549.811 117.562C547.712 112.211 544.05 109.536 538.823 109.536C534.818 109.536 531.785 111.084 529.725 114.18C527.664 117.237 526.31 121.518 525.662 127.021C525.051 132.525 524.746 139.691 524.746 148.52C524.746 161.476 525.833 170.591 528.008 175.865C530.221 181.14 533.826 183.777 538.823 183.777C548.514 183.777 553.359 176.267 553.359 161.246L582.887 165.431C581.513 179.725 576.821 190.58 568.809 197.994C560.798 205.409 549.868 209.116 536.019 209.116C525.147 209.116 515.762 206.307 507.865 200.689C500.006 195.07 494.054 187.732 490.01 178.674C485.966 169.578 483.944 160.004 483.944 149.953C483.944 138.793 485.985 128.321 490.068 118.537C494.15 108.714 500.254 100.784 508.38 94.7453C516.544 88.6684 526.291 85.63 537.622 85.63C549.83 85.63 559.386 88.4582 566.291 94.1146C573.235 99.7329 577.927 106.115 580.369 113.262C582.81 120.409 584.031 126.773 584.031 132.353Z" fill="#3D464D"/>
<path d="M596.44 88.4391H635.582L649.43 156.775H649.888L666.083 88.4391H695.84L656.24 210.09C653.684 217.887 650.136 224.098 645.596 228.722C641.057 233.385 635.716 236.672 629.573 238.583C623.469 240.532 616.412 241.507 608.4 241.507C605.882 241.507 602.143 241.201 597.184 240.589V213.588C600.808 214.352 604.165 214.734 607.256 214.734C621.447 214.734 628.543 210.052 628.543 200.689C628.543 197.134 628.009 193.599 626.941 190.083L596.44 88.4391Z" fill="#3D464D"/>
<path d="M712.541 206.307V39.1365H750.481V206.307H712.541Z" fill="#3D464D"/>
<path d="M833.734 131.378V123.41C833.734 119.549 832.895 116.282 831.217 113.606C829.538 110.893 827.096 109.536 823.892 109.536C820.039 109.536 817.12 111.084 815.136 114.18C813.191 117.275 811.97 120.906 811.474 125.072L778.455 118.25C779.828 110.836 782.804 104.682 787.382 99.7902C791.96 94.8981 797.549 91.3247 804.149 89.0697C810.749 86.7766 817.807 85.63 825.322 85.63C833.41 85.63 840.964 86.8721 847.983 89.3564C855.041 91.8024 860.764 95.739 865.151 101.166C869.538 106.593 871.732 113.377 871.732 121.518V187.274C871.732 197.134 872.896 203.479 875.223 206.307H836.081C835.775 204.931 835.508 202.848 835.28 200.058C835.089 197.268 834.974 195.758 834.936 195.529C827.192 204.587 817.654 209.116 806.324 209.116C795.985 209.116 787.764 205.944 781.66 199.599C775.594 193.217 772.561 184.331 772.561 172.942C772.561 163.157 775.689 155.189 781.946 149.035C788.202 142.882 795.985 138.468 805.294 135.793C814.64 133.117 824.121 131.646 833.734 131.378ZM833.734 176.267V149.723C828.164 150.258 823.777 151.099 820.573 152.246C817.406 153.354 814.945 155.399 813.191 158.38C811.436 161.361 810.558 165.603 810.558 171.107C810.558 175.158 811.531 178.292 813.477 180.509C815.461 182.687 818.169 183.777 821.603 183.777C825.38 183.777 829.423 181.273 833.734 176.267Z" fill="#3D464D"/>
<path d="M941.194 117.562V180.738C944.361 183.681 948.271 185.153 952.925 185.153C958.571 185.153 962.081 182.439 963.455 177.012C964.866 171.585 965.572 162.412 965.572 149.494C965.572 138.258 965.381 130.002 965 124.728C964.618 119.454 963.664 115.384 962.138 112.517C960.612 109.612 958.171 108.16 954.814 108.16C951.838 108.16 949.015 109.135 946.344 111.084C943.712 113.033 941.995 115.192 941.194 117.562ZM903.254 241.507V88.4391H939.821V100.879H940.279C943.941 96.4078 948.099 92.9872 952.754 90.6176C957.446 88.2098 962.196 87.0059 967.003 87.0059C972.84 87.0059 978.085 88.248 982.74 90.7323C987.432 93.1783 991.438 96.8091 994.757 101.625C998.076 106.402 1000.61 112.269 1002.37 119.225C1004.12 126.18 1005 134.073 1005 142.901C1005 154.1 1003.78 164.438 1001.34 173.916C998.896 183.394 994.661 191.172 988.634 197.249C982.644 203.288 974.652 206.307 964.656 206.307C955.882 206.307 948.061 202.867 941.194 195.988V241.507H903.254Z" fill="#3D464D"/>
<ellipse cx="143.241" cy="143.5" rx="143.241" ry="143.5" fill="#007EE5"/>
<path d="M65.1094 233.532L96.1418 55.3759H141.132L137.943 72.4817C153.53 58.9485 167.748 52.1819 180.595 52.1819C192.876 52.1819 202.323 56.3696 208.935 64.745C215.595 73.0732 218.925 84.8556 218.925 100.092C218.925 106.149 218.146 113.815 216.587 123.089C212.572 146.323 205.416 163.854 195.12 175.684C189.735 182.072 183.406 187.017 176.132 190.519C168.858 194.02 161.442 195.771 153.885 195.771C139.856 195.771 128.544 189.478 119.947 176.891L110.099 233.532H65.1094ZM123.419 156.236C128.426 163.807 134.519 167.593 141.698 167.593C148.736 167.593 154.475 163.783 158.915 156.165C163.402 148.547 167.157 136.078 170.18 118.76C171.125 112.608 171.597 107.663 171.597 103.925C171.597 88.4045 166.378 80.6442 155.939 80.6442C149.752 80.6442 142.596 84.7136 134.472 92.8525L123.419 156.236Z" fill="white"/>
</svg>
