<svg width="202" height="31" viewBox="0 0 202 31" fill="none" xmlns="http://www.w3.org/2000/svg">
<rect width="31" height="31" fill="#007641"/>
<path d="M5 26L6.806 20.5824C5.8896 19.041 5.36207 17.2423 5.36207 15.319C5.36207 9.62 9.98207 5 15.681 5C21.38 5 26 9.62 26 15.319C26 21.0179 21.38 25.6379 15.681 25.6379C13.9471 25.6379 12.3142 25.2082 10.88 24.4529L5 26Z" fill="#2CB742"/>
<path d="M22.2644 18.7532C21.7879 17.8527 20.0308 16.823 20.0308 16.823C19.6332 16.5963 19.1535 16.571 18.9268 16.9751C18.9268 16.9751 18.3558 17.6597 18.2107 17.7582C17.5473 18.2075 16.9329 18.1902 16.3127 17.5699L14.8713 16.1285L13.4299 14.6872C12.8097 14.0669 12.7923 13.4525 13.2416 12.7892C13.3401 12.644 14.0248 12.073 14.0248 12.073C14.4288 11.846 14.4035 11.3666 14.1768 10.9691C14.1768 10.9691 13.1471 9.21195 12.2467 8.73546C11.8636 8.5327 11.3933 8.60367 11.0869 8.90998L10.4504 9.5465C8.43117 11.5658 9.42541 13.8453 11.4447 15.8646L13.2901 17.7101L15.1356 19.5555C17.1549 21.5748 19.4344 22.569 21.4537 20.5498L22.0902 19.9133C22.3965 19.6062 22.4671 19.1359 22.2644 18.7532Z" fill="white"/>
<rect width="171" height="31" transform="translate(31)" fill="#009B28"/>
<path d="M52.312 9.8V21H51L44.28 12.648V21H42.68V9.8H43.992L50.712 18.152V9.8H52.312ZM63.3444 12.52V21H61.8884V19.72C61.579 20.1573 61.1684 20.4987 60.6564 20.744C60.155 20.9787 59.6057 21.096 59.0084 21.096C57.8777 21.096 56.987 20.7867 56.3364 20.168C55.6857 19.5387 55.3604 18.616 55.3604 17.4V12.52H56.8964V17.224C56.8964 18.0453 57.0937 18.6693 57.4884 19.096C57.883 19.512 58.4484 19.72 59.1844 19.72C59.995 19.72 60.635 19.4747 61.1044 18.984C61.5737 18.4933 61.8084 17.8 61.8084 16.904V12.52H63.3444ZM73.9325 16.808C73.9325 16.9253 73.9218 17.08 73.9005 17.272H67.0205C67.1165 18.0187 67.4418 18.6213 67.9965 19.08C68.5618 19.528 69.2605 19.752 70.0925 19.752C71.1058 19.752 71.9218 19.4107 72.5405 18.728L73.3885 19.72C73.0045 20.168 72.5245 20.5093 71.9485 20.744C71.3832 20.9787 70.7485 21.096 70.0445 21.096C69.1485 21.096 68.3538 20.9147 67.6605 20.552C66.9672 20.1787 66.4285 19.6613 66.0445 19C65.6712 18.3387 65.4845 17.592 65.4845 16.76C65.4845 15.9387 65.6658 15.1973 66.0285 14.536C66.4018 13.8747 66.9085 13.3627 67.5485 13C68.1992 12.6267 68.9298 12.44 69.7405 12.44C70.5512 12.44 71.2712 12.6267 71.9005 13C72.5405 13.3627 73.0365 13.8747 73.3885 14.536C73.7512 15.1973 73.9325 15.9547 73.9325 16.808ZM69.7405 13.736C69.0045 13.736 68.3858 13.96 67.8845 14.408C67.3938 14.856 67.1058 15.4427 67.0205 16.168H72.4605C72.3752 15.4533 72.0818 14.872 71.5805 14.424C71.0898 13.9653 70.4765 13.736 69.7405 13.736ZM78.4974 21.096C77.804 21.096 77.1374 21.0053 76.4974 20.824C75.8574 20.632 75.356 20.392 74.9934 20.104L75.6334 18.888C76.0067 19.1547 76.46 19.368 76.9934 19.528C77.5267 19.688 78.0654 19.768 78.6094 19.768C79.9534 19.768 80.6254 19.384 80.6254 18.616C80.6254 18.36 80.5347 18.1573 80.3534 18.008C80.172 17.8587 79.9427 17.752 79.6654 17.688C79.3987 17.6133 79.0147 17.5333 78.5134 17.448C77.8307 17.3413 77.2707 17.2187 76.8334 17.08C76.4067 16.9413 76.0387 16.7067 75.7294 16.376C75.42 16.0453 75.2654 15.5813 75.2654 14.984C75.2654 14.216 75.5854 13.6027 76.2254 13.144C76.8654 12.6747 77.724 12.44 78.8014 12.44C79.3667 12.44 79.932 12.5093 80.4974 12.648C81.0627 12.7867 81.5267 12.9733 81.8894 13.208L81.2334 14.424C80.54 13.976 79.724 13.752 78.7854 13.752C78.1347 13.752 77.6387 13.8587 77.2974 14.072C76.956 14.2853 76.7854 14.568 76.7854 14.92C76.7854 15.1973 76.8814 15.416 77.0734 15.576C77.2654 15.736 77.5 15.8533 77.7774 15.928C78.0654 16.0027 78.4654 16.088 78.9774 16.184C79.66 16.3013 80.2094 16.4293 80.6254 16.568C81.052 16.696 81.4147 16.92 81.7134 17.24C82.012 17.56 82.1614 18.008 82.1614 18.584C82.1614 19.352 81.8307 19.9653 81.1694 20.424C80.5187 20.872 79.628 21.096 78.4974 21.096ZM88.849 20.504C88.625 20.696 88.3477 20.8453 88.017 20.952C87.6863 21.048 87.345 21.096 86.993 21.096C86.1397 21.096 85.4783 20.8667 85.009 20.408C84.5397 19.9493 84.305 19.2933 84.305 18.44V13.784H82.865V12.52H84.305V10.664H85.841V12.52H88.273V13.784H85.841V18.376C85.841 18.8347 85.953 19.1867 86.177 19.432C86.4117 19.6773 86.7423 19.8 87.169 19.8C87.6383 19.8 88.0383 19.6667 88.369 19.4L88.849 20.504ZM92.178 13.944C92.4447 13.4533 92.8393 13.08 93.362 12.824C93.8847 12.568 94.5193 12.44 95.266 12.44V13.928C95.1807 13.9173 95.0633 13.912 94.914 13.912C94.082 13.912 93.426 14.1627 92.946 14.664C92.4767 15.1547 92.242 15.8587 92.242 16.776V21H90.706V12.52H92.178V13.944ZM100.713 21.096C99.8703 21.096 99.113 20.9093 98.441 20.536C97.769 20.1627 97.241 19.6507 96.857 19C96.4837 18.3387 96.297 17.592 96.297 16.76C96.297 15.928 96.4837 15.1867 96.857 14.536C97.241 13.8747 97.769 13.3627 98.441 13C99.113 12.6267 99.8703 12.44 100.713 12.44C101.556 12.44 102.308 12.6267 102.969 13C103.641 13.3627 104.164 13.8747 104.537 14.536C104.921 15.1867 105.113 15.928 105.113 16.76C105.113 17.592 104.921 18.3387 104.537 19C104.164 19.6507 103.641 20.1627 102.969 20.536C102.308 20.9093 101.556 21.096 100.713 21.096ZM100.713 19.752C101.257 19.752 101.742 19.6293 102.169 19.384C102.606 19.128 102.948 18.776 103.193 18.328C103.438 17.8693 103.561 17.3467 103.561 16.76C103.561 16.1733 103.438 15.656 103.193 15.208C102.948 14.7493 102.606 14.3973 102.169 14.152C101.742 13.9067 101.257 13.784 100.713 13.784C100.169 13.784 99.6783 13.9067 99.241 14.152C98.8143 14.3973 98.473 14.7493 98.217 15.208C97.9717 15.656 97.849 16.1733 97.849 16.76C97.849 17.3467 97.9717 17.8693 98.217 18.328C98.473 18.776 98.8143 19.128 99.241 19.384C99.6783 19.6293 100.169 19.752 100.713 19.752ZM127.582 9.8L123.838 21H122.158L119.102 12.056L116.046 21H114.334L110.59 9.8H112.238L115.262 18.904L118.414 9.8H119.886L122.974 18.952L126.062 9.8H127.582ZM134.078 12.44C135.155 12.44 136.008 12.7547 136.638 13.384C137.278 14.0027 137.598 14.9147 137.598 16.12V21H136.062V16.296C136.062 15.4747 135.864 14.856 135.47 14.44C135.075 14.024 134.51 13.816 133.774 13.816C132.942 13.816 132.286 14.0613 131.806 14.552C131.326 15.032 131.086 15.7253 131.086 16.632V21H129.55V9.128H131.086V13.72C131.406 13.3147 131.822 13 132.334 12.776C132.856 12.552 133.438 12.44 134.078 12.44ZM143.528 12.44C144.702 12.44 145.598 12.728 146.216 13.304C146.846 13.88 147.16 14.7387 147.16 15.88V21H145.704V19.88C145.448 20.2747 145.08 20.5787 144.6 20.792C144.131 20.9947 143.571 21.096 142.92 21.096C141.971 21.096 141.208 20.8667 140.632 20.408C140.067 19.9493 139.784 19.3467 139.784 18.6C139.784 17.8533 140.056 17.256 140.6 16.808C141.144 16.3493 142.008 16.12 143.192 16.12H145.624V15.816C145.624 15.1547 145.432 14.648 145.048 14.296C144.664 13.944 144.099 13.768 143.352 13.768C142.851 13.768 142.36 13.8533 141.88 14.024C141.4 14.184 140.995 14.4027 140.664 14.68L140.024 13.528C140.462 13.176 140.984 12.9093 141.592 12.728C142.2 12.536 142.846 12.44 143.528 12.44ZM143.176 19.912C143.763 19.912 144.27 19.784 144.696 19.528C145.123 19.2613 145.432 18.888 145.624 18.408V17.224H143.256C141.955 17.224 141.304 17.6613 141.304 18.536C141.304 18.9627 141.47 19.2987 141.8 19.544C142.131 19.7893 142.59 19.912 143.176 19.912ZM154.771 20.504C154.547 20.696 154.27 20.8453 153.939 20.952C153.608 21.048 153.267 21.096 152.915 21.096C152.062 21.096 151.4 20.8667 150.931 20.408C150.462 19.9493 150.227 19.2933 150.227 18.44V13.784H148.787V12.52H150.227V10.664H151.763V12.52H154.195V13.784H151.763V18.376C151.763 18.8347 151.875 19.1867 152.099 19.432C152.334 19.6773 152.664 19.8 153.091 19.8C153.56 19.8 153.96 19.6667 154.291 19.4L154.771 20.504ZM159.06 21.096C158.367 21.096 157.7 21.0053 157.06 20.824C156.42 20.632 155.919 20.392 155.556 20.104L156.196 18.888C156.569 19.1547 157.023 19.368 157.556 19.528C158.089 19.688 158.628 19.768 159.172 19.768C160.516 19.768 161.188 19.384 161.188 18.616C161.188 18.36 161.097 18.1573 160.916 18.008C160.735 17.8587 160.505 17.752 160.228 17.688C159.961 17.6133 159.577 17.5333 159.076 17.448C158.393 17.3413 157.833 17.2187 157.396 17.08C156.969 16.9413 156.601 16.7067 156.292 16.376C155.983 16.0453 155.828 15.5813 155.828 14.984C155.828 14.216 156.148 13.6027 156.788 13.144C157.428 12.6747 158.287 12.44 159.364 12.44C159.929 12.44 160.495 12.5093 161.06 12.648C161.625 12.7867 162.089 12.9733 162.452 13.208L161.796 14.424C161.103 13.976 160.287 13.752 159.348 13.752C158.697 13.752 158.201 13.8587 157.86 14.072C157.519 14.2853 157.348 14.568 157.348 14.92C157.348 15.1973 157.444 15.416 157.636 15.576C157.828 15.736 158.063 15.8533 158.34 15.928C158.628 16.0027 159.028 16.088 159.54 16.184C160.223 16.3013 160.772 16.4293 161.188 16.568C161.615 16.696 161.977 16.92 162.276 17.24C162.575 17.56 162.724 18.008 162.724 18.584C162.724 19.352 162.393 19.9653 161.732 20.424C161.081 20.872 160.191 21.096 159.06 21.096ZM172.003 18.2H166.052L164.82 21H163.171L168.244 9.8H169.828L174.916 21H173.236L172.003 18.2ZM171.444 16.92L169.028 11.432L166.612 16.92H171.444ZM180.858 12.44C181.68 12.44 182.416 12.6213 183.066 12.984C183.717 13.3467 184.224 13.8533 184.586 14.504C184.96 15.1547 185.146 15.9067 185.146 16.76C185.146 17.6133 184.96 18.3707 184.586 19.032C184.224 19.6827 183.717 20.1893 183.066 20.552C182.416 20.9147 181.68 21.096 180.858 21.096C180.25 21.096 179.69 20.9787 179.178 20.744C178.677 20.5093 178.25 20.168 177.898 19.72V24.104H176.362V12.52H177.834V13.864C178.176 13.3947 178.608 13.0427 179.13 12.808C179.653 12.5627 180.229 12.44 180.858 12.44ZM180.73 19.752C181.274 19.752 181.76 19.6293 182.186 19.384C182.624 19.128 182.965 18.776 183.21 18.328C183.466 17.8693 183.594 17.3467 183.594 16.76C183.594 16.1733 183.466 15.656 183.21 15.208C182.965 14.7493 182.624 14.3973 182.186 14.152C181.76 13.9067 181.274 13.784 180.73 13.784C180.197 13.784 179.712 13.912 179.274 14.168C178.848 14.4133 178.506 14.76 178.25 15.208C178.005 15.656 177.882 16.1733 177.882 16.76C177.882 17.3467 178.005 17.8693 178.25 18.328C178.496 18.776 178.837 19.128 179.274 19.384C179.712 19.6293 180.197 19.752 180.73 19.752ZM191.765 12.44C192.586 12.44 193.322 12.6213 193.973 12.984C194.623 13.3467 195.13 13.8533 195.493 14.504C195.866 15.1547 196.053 15.9067 196.053 16.76C196.053 17.6133 195.866 18.3707 195.493 19.032C195.13 19.6827 194.623 20.1893 193.973 20.552C193.322 20.9147 192.586 21.096 191.765 21.096C191.157 21.096 190.597 20.9787 190.085 20.744C189.583 20.5093 189.157 20.168 188.805 19.72V24.104H187.269V12.52H188.741V13.864C189.082 13.3947 189.514 13.0427 190.036 12.808C190.559 12.5627 191.135 12.44 191.765 12.44ZM191.637 19.752C192.181 19.752 192.666 19.6293 193.093 19.384C193.53 19.128 193.871 18.776 194.117 18.328C194.373 17.8693 194.501 17.3467 194.501 16.76C194.501 16.1733 194.373 15.656 194.117 15.208C193.871 14.7493 193.53 14.3973 193.093 14.152C192.666 13.9067 192.181 13.784 191.637 13.784C191.103 13.784 190.618 13.912 190.181 14.168C189.754 14.4133 189.413 14.76 189.157 15.208C188.911 15.656 188.789 16.1733 188.789 16.76C188.789 17.3467 188.911 17.8693 189.157 18.328C189.402 18.776 189.743 19.128 190.181 19.384C190.618 19.6293 191.103 19.752 191.637 19.752Z" fill="white"/>
</svg>
